<svg width="44" height="36" viewBox="0 0 44 36" fill="none" xmlns="http://www.w3.org/2000/svg">
<path d="M42.2756 0H1.416C0.634008 0 0 0.719438 0 1.60677V34.2297C0 35.1171 0.634008 35.8364 1.416 35.8364H42.2755C43.0576 35.8364 43.6916 35.1172 43.6916 34.2297V1.60677C43.6916 0.719438 43.0577 0 42.2756 0ZM38.6629 27.5667C39.2625 28.1571 39.3267 29.1873 38.8064 29.8677C38.2859 30.5477 37.3782 30.621 36.7782 30.0303C36.4067 29.6645 27.0325 20.4336 26.6713 20.0779L22.7882 23.9017C22.5179 24.1679 22.1818 24.301 21.8458 24.301C21.5098 24.301 21.1738 24.1679 20.9035 23.9017L17.0204 20.0779C16.659 20.4337 7.28491 29.6645 6.91342 30.0303C6.31372 30.6208 5.4057 30.5481 4.88526 29.8677C4.36483 29.1873 4.42905 28.1571 5.02874 27.5667L14.8271 17.9181L5.02874 8.26973C4.42914 7.67926 4.36493 6.64915 4.88526 5.96875C5.40579 5.28846 6.31372 5.21538 6.91342 5.80607C7.39935 6.28453 20.9636 19.6414 21.8458 20.5102C22.6099 19.7578 36.2516 6.32466 36.7782 5.80607C37.3778 5.21549 38.2859 5.28824 38.8064 5.96875C39.3268 6.64915 39.2626 7.67937 38.6629 8.26973L28.8646 17.9181L38.6629 27.5667Z" fill="#8EFDBF"/>
</svg>
