<svg width="47" height="46" viewBox="0 0 47 46" fill="none" xmlns="http://www.w3.org/2000/svg">
<path fill-rule="evenodd" clip-rule="evenodd" d="M3.7863 38.9642H35.8319C37.2205 37.5232 38.8336 33.4436 40.4917 29.248C41.0194 27.9118 41.5509 26.5644 42.1011 25.2582C39.6945 25.2657 36.4195 25.0299 35.918 24.4535C35.5288 24.0081 35.671 23.3568 36.2586 22.5372L43.3437 15.6205C44.0061 15.0217 44.5825 14.7934 45.0728 14.9431C45.5594 15.0891 45.9636 15.6018 46.2817 16.4889C46.4614 19.1575 46.4427 21.8298 46.0459 24.4984C45.8289 24.6256 45.6043 24.7342 45.376 24.8315C44.6237 26.5083 43.8751 28.4096 43.1303 30.2885C41.854 33.5185 40.604 36.6849 39.1929 38.9642H43.0817C44.9231 38.9642 46.4277 40.4688 46.4277 42.3102C46.4277 44.1517 44.9231 45.6563 43.0817 45.6563H3.78256C1.94112 45.6563 0.436523 44.1517 0.436523 42.3102C0.440266 40.4725 1.94486 38.9642 3.7863 38.9642ZM14.0752 14.2282L13.9741 14.0598L11.3317 14.4378L10.3736 20.2953C10.1939 21.3919 9.16467 22.133 8.06804 21.9571C6.9714 21.7774 6.23033 20.7481 6.40625 19.6515L7.60393 12.3344C7.7499 11.4436 8.45728 10.7886 9.30315 10.6688L14.4195 9.93527L18.2035 9.10811C20.3593 9.17922 21.9687 10.085 22.6948 11.99C22.7996 12.121 22.8894 12.2708 22.9605 12.4317L24.9891 17.069L31.6063 17.4807C32.7142 17.5443 33.5601 18.4987 33.4927 19.6066C33.4291 20.7144 32.4747 21.5603 31.3668 21.4967L23.5182 21.0101C22.7098 20.9615 22.0398 20.4412 21.7628 19.7338L21.3511 18.7944L20.509 22.4586L26.0633 25.7298C26.5461 26.0105 26.8642 26.4633 26.9915 26.9649H26.999L29.0163 34.8659C29.2896 35.9438 28.6383 37.0404 27.5604 37.3136C26.4825 37.5869 25.3858 36.9356 25.1126 35.8577L23.3086 28.7502L22.8445 28.477L17.0731 26.28L16.7625 26.4521L14.9997 31.1268C14.8724 31.4637 14.6665 31.7444 14.4083 31.9615L7.79481 37.512C6.94146 38.2231 5.6764 38.1109 4.96154 37.2612C4.25041 36.4079 4.36269 35.1428 5.2123 34.428L11.3055 29.3153C11.7509 24.1503 12.724 19.135 14.0752 14.2282ZM22.1147 0.608276C24.2256 0.608276 25.936 2.31872 25.936 4.42965C25.936 6.54057 24.2256 8.25102 22.1147 8.25102C20.0037 8.25102 18.2933 6.54057 18.2933 4.42965C18.2933 2.31872 20.0037 0.608276 22.1147 0.608276Z" fill="#95BAFF"/>
</svg>
