<svg width="59" height="43" viewBox="0 0 59 43" fill="none" xmlns="http://www.w3.org/2000/svg">
<path d="M56.4464 25.2727C56.4464 25.2727 55.8462 24.3462 54.4261 23.7285C54.4261 23.7285 54.308 23.6875 54.1243 23.6206C52.8583 22.947 51.658 22.5154 51.658 22.5154C51.4022 22.4112 51.1791 22.307 50.9692 22.2065C50.1132 21.7228 49.4934 21.1684 49.4934 21.1684C49.4934 21.1684 49.4868 21.1609 48.8276 20.413C50.0115 19.0213 50.8807 17.131 51.1529 15.3225C51.3628 15.0769 51.576 14.6825 51.6678 14.0536C51.8384 13.3541 52.0515 12.1298 51.6744 11.5605C51.6514 11.5307 51.6317 11.5047 51.6088 11.4786C51.963 10.0051 52.4156 6.96123 50.8085 4.88486C50.6642 4.67648 49.7656 3.45596 47.8371 2.80849L46.9188 2.44755C45.4003 1.91543 44.4459 1.80008 44.4065 1.79264C44.3376 1.78519 44.2655 1.79264 44.1999 1.81124C44.1474 1.82985 43.967 1.88194 43.8293 1.85962C43.4652 1.80008 42.9208 2.01218 42.8224 2.05683C42.6978 2.11265 39.7591 3.44852 38.8703 6.55191C38.7883 6.80123 38.4308 8.12221 38.9031 11.3596C38.8342 11.4117 38.7719 11.4786 38.7129 11.5605C38.3324 12.1298 38.5456 13.3466 38.7195 14.0499C38.808 14.6713 39.0212 15.062 39.2278 15.3114C39.464 17.0975 40.2183 18.8166 41.212 20.1339C41.212 20.1339 41.9664 21.6149 42.0615 21.7526C44.4524 25.7714 44.7541 33.5187 44.7837 34.3894L44.7869 34.4452L44.7837 34.5047C44.7443 37.2137 43.557 38.1551 42.9208 38.4677C42.6125 38.624 42.2911 38.7617 41.9664 38.9031C42.1271 38.6352 42.2845 38.17 42.2944 37.3477C42.2944 37.3477 42.0615 25.9648 40.0379 22.5675C40.0379 22.5675 39.4607 21.6744 38.093 21.0828C38.093 21.0828 37.9815 21.0418 37.8011 20.9786C36.5876 20.3311 35.4332 19.9181 35.4332 19.9181C35.1872 19.8176 34.9674 19.7209 34.7707 19.6204C33.9507 19.1553 33.3505 18.6231 33.3505 18.6231C33.3505 18.6231 33.344 18.6157 32.711 17.8938C33.8491 16.5542 34.6854 14.7383 34.9445 13.0043C35.1511 12.7699 35.3545 12.3866 35.443 11.7838C35.6037 11.1102 35.8103 9.93438 35.4463 9.38738C35.4266 9.36134 35.4069 9.33529 35.3873 9.30924C35.7283 7.8915 36.1613 4.96673 34.6165 2.9685C34.4755 2.77128 33.6096 1.59542 31.7599 0.973995L30.8744 0.631655C29.4182 0.121865 28.4998 0.00651189 28.4605 0.00279079C28.3949 -0.00465139 28.326 0.00279095 28.2604 0.0251175C28.2079 0.0400019 28.0374 0.0920972 27.9029 0.0734917C27.5553 0.0139543 27.0305 0.218614 26.9387 0.259546C26.8206 0.311641 23.9968 1.59542 23.1408 4.57973C23.062 4.8216 22.721 6.0905 23.1736 9.20133C23.1047 9.25342 23.0457 9.31668 22.9932 9.39483C22.6291 9.93811 22.8357 11.114 22.9965 11.7875C23.085 12.3866 23.2883 12.7661 23.4884 13.0006C23.7147 14.716 24.4395 16.3719 25.3972 17.637L25.125 18.1096L25.1184 18.0799L25.1086 18.1431C25.1119 18.1319 25.1217 18.1171 25.125 18.1096L25.1217 18.1133L25.1086 18.1431C24.7249 19.5013 20.1267 21.0865 20.1267 21.0865C18.7623 21.6782 18.1851 22.5712 18.1851 22.5712C16.1648 25.9686 15.9286 37.3477 15.9286 37.3477C15.9385 38.1626 16.0926 38.6203 16.2468 38.8882C15.9352 38.758 15.6171 38.624 15.3186 38.4752C14.6824 38.1626 13.4918 37.2137 13.4557 34.5085V34.4489V34.3894C13.4853 33.5187 13.7903 25.7788 16.1353 21.827C16.2632 21.6261 16.683 21.0307 17.457 20.4167C17.457 20.4167 17.457 20.413 17.4537 20.413C18.6377 19.0213 19.5068 17.131 19.779 15.3225C19.9889 15.0769 20.2021 14.6825 20.2972 14.0536C20.4678 13.3541 20.681 12.1298 20.3005 11.5605C20.2808 11.5307 20.2579 11.5047 20.2382 11.4786C20.5924 10.0051 21.045 6.96123 19.438 4.88486C19.3035 4.67648 18.4016 3.45596 16.4731 2.80849L15.5548 2.44755C14.0362 1.91543 13.0818 1.80008 13.0425 1.79264C12.9736 1.78519 12.9015 1.79264 12.8359 1.81124C12.7834 1.83357 12.603 1.88566 12.462 1.86334C12.1012 1.8038 11.5568 2.0159 11.4584 2.06055C11.3338 2.11265 8.3984 3.44852 7.50631 6.55563C7.42432 6.80495 7.07011 8.12593 7.53911 11.3633C7.47024 11.4154 7.40464 11.4824 7.34889 11.5642C6.96844 12.1335 7.1849 13.3503 7.35217 14.0536C7.44072 14.6751 7.6539 15.0658 7.86052 15.3151C8.09666 17.1012 8.851 18.8204 9.84804 20.1376L9.56598 20.6288L9.55942 20.5953L9.5463 20.6623C9.54958 20.6511 9.55942 20.6362 9.5627 20.6251V20.6288L9.5463 20.6623C9.14946 22.0763 4.36762 23.7247 4.36762 23.7247C2.9475 24.3425 2.34731 25.269 2.34731 25.269C0.245003 28.804 -0.000976562 36.6741 -0.000976562 36.6741C0.0252612 38.4677 0.710724 38.6575 0.710724 38.6575C5.54176 41.1022 13.1245 41.5339 13.1245 41.5339C13.5344 41.5488 13.9116 41.5227 14.2921 41.4967L14.3019 41.5413C14.3019 41.5413 17.1553 41.3739 20.4711 40.6855C24.4691 41.7832 28.5392 42.0176 28.5392 42.0176C28.9295 42.0288 29.2968 42.0027 29.6609 41.9767L29.6707 42.0214C29.6707 42.0214 33.9179 41.7758 37.9946 40.6111C41.4482 41.359 44.4852 41.5339 44.4852 41.5339C44.8919 41.5488 45.2723 41.5227 45.6528 41.4967L45.6626 41.5413C45.6626 41.5413 53.2454 41.106 58.0764 38.6649C58.0764 38.6649 58.7586 38.4752 58.7848 36.6779C58.7947 36.6816 58.5487 28.8115 56.4464 25.2727Z" fill="#E4B4FC"/>
</svg>
